<svg width="141" height="21" viewBox="0 0 141 21" fill="none" xmlns="http://www.w3.org/2000/svg">
<path d="M10.3708 13.5557C10.3861 13.5753 10.4058 13.5911 10.4281 13.602C10.4505 13.6129 10.4751 13.6186 10.5 13.6186C10.5249 13.6186 10.5495 13.6129 10.5719 13.602C10.5942 13.5911 10.6139 13.5753 10.6292 13.5557L12.9261 10.6497C13.0102 10.5431 12.9343 10.3852 12.7969 10.3852H11.2772V3.44531C11.2772 3.35508 11.2034 3.28125 11.1132 3.28125H9.88271C9.79248 3.28125 9.71865 3.35508 9.71865 3.44531V10.3831H8.20312C8.06572 10.3831 7.98984 10.541 8.07393 10.6477L10.3708 13.5557ZM18.0059 12.8379H16.7754C16.6852 12.8379 16.6113 12.9117 16.6113 13.002V16.1602H4.38867V13.002C4.38867 12.9117 4.31484 12.8379 4.22461 12.8379H2.99414C2.90391 12.8379 2.83008 12.9117 2.83008 13.002V17.0625C2.83008 17.4255 3.12334 17.7188 3.48633 17.7188H17.5137C17.8767 17.7188 18.1699 17.4255 18.1699 17.0625V13.002C18.1699 12.9117 18.0961 12.8379 18.0059 12.8379Z" fill="#BDBDBD"/>
<path d="M27.9395 16V6.75781H30.6689C31.4857 6.75781 32.2093 6.93978 32.8398 7.30371C33.4746 7.66764 33.9655 8.18392 34.3125 8.85254C34.6595 9.52116 34.833 10.2871 34.833 11.1504V11.6138C34.833 12.4897 34.6574 13.2599 34.3062 13.9243C33.9591 14.5887 33.4619 15.1007 32.8145 15.4604C32.1712 15.8201 31.4328 16 30.5991 16H27.9395ZM29.5454 8.05273V14.7178H30.5928C31.4349 14.7178 32.0802 14.4554 32.5288 13.9307C32.9816 13.4017 33.2122 12.6442 33.2207 11.6582V11.144C33.2207 10.1411 33.0028 9.37516 32.5669 8.84619C32.131 8.31722 31.4984 8.05273 30.6689 8.05273H29.5454ZM35.9946 12.5024C35.9946 11.8296 36.1279 11.2244 36.3945 10.687C36.6611 10.1453 37.0356 9.73063 37.5181 9.44287C38.0005 9.15088 38.5549 9.00488 39.1812 9.00488C40.1079 9.00488 40.859 9.30322 41.4346 9.8999C42.0143 10.4966 42.3275 11.2879 42.374 12.2739L42.3804 12.6357C42.3804 13.3128 42.2492 13.918 41.9868 14.4512C41.7287 14.9844 41.3563 15.397 40.8696 15.689C40.3872 15.981 39.8286 16.127 39.1938 16.127C38.2248 16.127 37.4482 15.8053 36.8643 15.1621C36.2845 14.5146 35.9946 13.6535 35.9946 12.5786V12.5024ZM37.5371 12.6357C37.5371 13.3424 37.6831 13.8968 37.9751 14.2988C38.2671 14.6966 38.6733 14.8955 39.1938 14.8955C39.7144 14.8955 40.1185 14.6924 40.4062 14.2861C40.6982 13.8799 40.8442 13.2853 40.8442 12.5024C40.8442 11.8084 40.694 11.2583 40.3936 10.8521C40.0973 10.4458 39.6932 10.2427 39.1812 10.2427C38.6776 10.2427 38.2777 10.4437 37.9814 10.8457C37.6852 11.2435 37.5371 11.8402 37.5371 12.6357ZM49.7183 13.8735L50.8101 9.13184H52.3145L50.4419 16H49.1724L47.6997 11.2837L46.2524 16H44.9829L43.104 9.13184H44.6084L45.7192 13.8228L47.1284 9.13184H48.29L49.7183 13.8735ZM54.7773 9.13184L54.8218 9.92529C55.3296 9.31169 55.9961 9.00488 56.8213 9.00488C58.2516 9.00488 58.9795 9.82373 59.0049 11.4614V16H57.4624V11.5503C57.4624 11.1144 57.3672 10.7928 57.1768 10.5854C56.9906 10.3739 56.6838 10.2681 56.2563 10.2681C55.6343 10.2681 55.1709 10.5495 54.8662 11.1123V16H53.3237V9.13184H54.7773ZM62.2231 16H60.6807V6.25H62.2231V16ZM63.6196 12.5024C63.6196 11.8296 63.7529 11.2244 64.0195 10.687C64.2861 10.1453 64.6606 9.73063 65.1431 9.44287C65.6255 9.15088 66.1799 9.00488 66.8062 9.00488C67.7329 9.00488 68.484 9.30322 69.0596 9.8999C69.6393 10.4966 69.9525 11.2879 69.999 12.2739L70.0054 12.6357C70.0054 13.3128 69.8742 13.918 69.6118 14.4512C69.3537 14.9844 68.9813 15.397 68.4946 15.689C68.0122 15.981 67.4536 16.127 66.8188 16.127C65.8498 16.127 65.0732 15.8053 64.4893 15.1621C63.9095 14.5146 63.6196 13.6535 63.6196 12.5786V12.5024ZM65.1621 12.6357C65.1621 13.3424 65.3081 13.8968 65.6001 14.2988C65.8921 14.6966 66.2983 14.8955 66.8188 14.8955C67.3394 14.8955 67.7435 14.6924 68.0312 14.2861C68.3232 13.8799 68.4692 13.2853 68.4692 12.5024C68.4692 11.8084 68.319 11.2583 68.0186 10.8521C67.7223 10.4458 67.3182 10.2427 66.8062 10.2427C66.3026 10.2427 65.9027 10.4437 65.6064 10.8457C65.3102 11.2435 65.1621 11.8402 65.1621 12.6357ZM75.4136 16C75.3459 15.8688 75.2866 15.6551 75.2358 15.3589C74.745 15.8709 74.144 16.127 73.4331 16.127C72.7433 16.127 72.1805 15.9302 71.7446 15.5366C71.3088 15.1431 71.0908 14.6564 71.0908 14.0767C71.0908 13.3446 71.3617 12.7839 71.9033 12.3945C72.4492 12.001 73.2279 11.8042 74.2393 11.8042H75.1851V11.3535C75.1851 10.998 75.0856 10.7145 74.8867 10.5029C74.6878 10.2871 74.3853 10.1792 73.979 10.1792C73.6278 10.1792 73.34 10.2681 73.1157 10.4458C72.8914 10.6193 72.7793 10.8415 72.7793 11.1123H71.2368C71.2368 10.7357 71.3617 10.3844 71.6113 10.0586C71.861 9.72852 72.1995 9.47038 72.627 9.28418C73.0586 9.09798 73.5389 9.00488 74.0679 9.00488C74.8719 9.00488 75.513 9.20801 75.9912 9.61426C76.4694 10.0163 76.7148 10.5833 76.7275 11.3154V14.4131C76.7275 15.0309 76.8143 15.5239 76.9878 15.8921V16H75.4136ZM73.7188 14.8892C74.0234 14.8892 74.3091 14.8151 74.5757 14.667C74.8465 14.5189 75.0496 14.32 75.1851 14.0703V12.7754H74.3535C73.7822 12.7754 73.3527 12.8748 73.0649 13.0737C72.7772 13.2726 72.6333 13.554 72.6333 13.918C72.6333 14.2142 72.7306 14.4512 72.9253 14.6289C73.1242 14.8024 73.3887 14.8892 73.7188 14.8892ZM78.0542 12.5151C78.0542 11.4572 78.2996 10.6087 78.7905 9.96973C79.2814 9.3265 79.9395 9.00488 80.7646 9.00488C81.4925 9.00488 82.0807 9.25879 82.5293 9.7666V6.25H84.0718V16H82.6753L82.5991 15.2891C82.1379 15.8477 81.5221 16.127 80.752 16.127C79.9479 16.127 79.2962 15.8032 78.7969 15.1558C78.3018 14.5083 78.0542 13.6281 78.0542 12.5151ZM79.5967 12.6484C79.5967 13.3467 79.73 13.8926 79.9966 14.2861C80.2674 14.6755 80.6504 14.8701 81.1455 14.8701C81.776 14.8701 82.2373 14.5887 82.5293 14.0259V11.0933C82.2458 10.5431 81.7887 10.2681 81.1582 10.2681C80.6589 10.2681 80.2738 10.467 80.0029 10.8647C79.7321 11.2583 79.5967 11.8529 79.5967 12.6484ZM96.1196 12.9912C96.0265 13.9772 95.6626 14.7474 95.0278 15.3018C94.3931 15.8519 93.5488 16.127 92.4951 16.127C91.7588 16.127 91.1092 15.9535 90.5464 15.6064C89.9878 15.2552 89.5562 14.758 89.2515 14.1147C88.9468 13.4715 88.7881 12.7246 88.7754 11.874V11.0107C88.7754 10.139 88.9299 9.37093 89.2388 8.70654C89.5477 8.04215 89.9899 7.53011 90.5654 7.17041C91.1452 6.81071 91.8138 6.63086 92.5713 6.63086C93.5911 6.63086 94.4121 6.90804 95.0342 7.4624C95.6562 8.01676 96.0181 8.79964 96.1196 9.81104H94.52C94.4438 9.14665 94.2492 8.66846 93.936 8.37646C93.6271 8.08024 93.1722 7.93213 92.5713 7.93213C91.873 7.93213 91.3356 8.18815 90.959 8.7002C90.5866 9.20801 90.3962 9.95492 90.3877 10.9409V11.7598C90.3877 12.7585 90.5654 13.5202 90.9209 14.0449C91.2806 14.5697 91.8053 14.832 92.4951 14.832C93.1257 14.832 93.5996 14.6903 93.917 14.4067C94.2344 14.1232 94.4354 13.6514 94.52 12.9912H96.1196ZM100.817 13.9878L103.166 6.75781H104.93L101.604 16H100.049L96.7354 6.75781H98.4937L100.817 13.9878Z" fill="#BDBDBD"/>
</svg>
