<svg width="24" height="35" viewBox="0 0 24 35" fill="none" xmlns="http://www.w3.org/2000/svg">
<path d="M17.5 23.3333C20.7217 23.3333 23.3334 20.7216 23.3334 17.5C23.3334 14.2783 20.7217 11.6666 17.5 11.6666C14.2784 11.6666 11.6667 14.2783 11.6667 17.5C11.6667 20.7216 14.2784 23.3333 17.5 23.3333Z" fill="#19BCFE"/>
<path fill-rule="evenodd" clip-rule="evenodd" d="M5.83333 35C7.38043 35 8.86416 34.3855 9.95812 33.2915C11.0521 32.1975 11.6667 30.7138 11.6667 29.1667V23.3334H5.83333C4.28624 23.3334 2.80251 23.948 1.70854 25.0419C0.614582 26.1359 0 27.6196 0 29.1667C0 30.7138 0.614582 32.1975 1.70854 33.2915C2.80251 34.3855 4.28624 35 5.83333 35Z" fill="#09CF83"/>
<path fill-rule="evenodd" clip-rule="evenodd" d="M5.83333 23.3333H11.6667V11.6666H5.83333C4.28624 11.6666 2.80251 12.2812 1.70854 13.3752C0.614582 14.4691 0 15.9529 0 17.5C0 19.0471 0.614582 20.5308 1.70854 21.6247C2.80251 22.7187 4.28624 23.3333 5.83333 23.3333Z" fill="#A259FF"/>
<path fill-rule="evenodd" clip-rule="evenodd" d="M5.83333 11.6667H11.6667V0H5.83333C4.28624 0 2.80251 0.614582 1.70854 1.70854C0.614582 2.80251 0 4.28624 0 5.83333C0 7.38043 0.614582 8.86416 1.70854 9.95812C2.80251 11.0521 4.28624 11.6667 5.83333 11.6667Z" fill="#F24E1E"/>
<path fill-rule="evenodd" clip-rule="evenodd" d="M17.5 11.6667H11.6667V0H17.5C19.0471 0 20.5308 0.614582 21.6248 1.70854C22.7188 2.80251 23.3334 4.28624 23.3334 5.83333C23.3334 7.38043 22.7188 8.86416 21.6248 9.95812C20.5308 11.0521 19.0471 11.6667 17.5 11.6667Z" fill="#FF7262"/>
</svg>
