<svg width="28" height="22" viewBox="0 0 28 22" fill="none" xmlns="http://www.w3.org/2000/svg">
<path d="M2.8 19.25H5.6V7.21875L14 12.375L22.4 7.21875V19.25H25.2V2.75H23.52L14 8.59375L4.48 2.75H2.8V19.25ZM2.8 0H25.2C26.754 0 28 1.22375 28 2.75V19.25C28 19.9793 27.705 20.6788 27.1799 21.1945C26.6548 21.7103 25.9426 22 25.2 22H2.8C2.05739 22 1.3452 21.7103 0.820102 21.1945C0.295 20.6788 4.76837e-07 19.9793 4.76837e-07 19.25V2.75C4.76837e-07 2.02065 0.295 1.32118 0.820102 0.805456C1.3452 0.289731 2.05739 0 2.8 0V0Z" fill="#F2F2F2"/>
</svg>
