<svg width="51" height="51" viewBox="0 0 51 51" fill="none" xmlns="http://www.w3.org/2000/svg">
<g clip-path="url(#clip0)" filter="url(#filter0_d)">
<path d="M8.72919 8H42.2709C42.6735 8 43 8.32648 43 8.72919V42.2709C43 42.6736 42.6735 43.0001 42.2708 43.0001H8.72919C8.32648 43 8 42.6735 8 42.2708V8.72919C8 8.32648 8.32648 8 8.72919 8Z" fill="#FFC107"/>
<path d="M11.6458 10.9167H39.3541C39.7568 10.9167 40.0833 11.2432 40.0833 11.6459V39.3542C40.0833 39.7569 39.7568 40.0834 39.3541 40.0834H11.6458C11.2431 40.0834 10.9166 39.7569 10.9166 39.3542V11.6458C10.9167 11.2431 11.2431 10.9167 11.6458 10.9167Z" fill="#5D4037"/>
<path d="M27.6875 32.7917C27.3738 32.7914 27.0954 32.5906 26.9963 32.2929L23.3125 21.2431L19.6288 32.2929C19.487 32.6699 19.0665 32.8605 18.6896 32.7188C18.3328 32.5846 18.1395 32.1981 18.2463 31.8321L22.6213 18.7071C22.7935 18.3253 23.2426 18.1554 23.6244 18.3277C23.7929 18.4037 23.9278 18.5386 24.0038 18.7071L28.3788 31.8321C28.5061 32.2141 28.2995 32.627 27.9174 32.7543C27.8433 32.779 27.7657 32.7916 27.6875 32.7917Z" fill="#FFC107"/>
<path d="M26.2292 28.4167H20.3959C19.9932 28.4167 19.6667 28.0902 19.6667 27.6875C19.6667 27.2848 19.9932 26.9583 20.3959 26.9583H26.2292C26.6319 26.9583 26.9584 27.2848 26.9584 27.6875C26.9583 28.0902 26.6319 28.4167 26.2292 28.4167Z" fill="#FFC107"/>
<path d="M32.0625 32.7917C31.6598 32.7917 31.3333 32.4652 31.3333 32.0625V21.8542C31.3333 21.4515 31.6598 21.125 32.0625 21.125C32.4652 21.125 32.7917 21.4515 32.7917 21.8542V32.0625C32.7917 32.4652 32.4652 32.7917 32.0625 32.7917Z" fill="#FFC107"/>
<path d="M32.0625 19.6667C32.4652 19.6667 32.7917 19.3402 32.7917 18.9375C32.7917 18.5348 32.4652 18.2083 32.0625 18.2083C31.6598 18.2083 31.3333 18.5348 31.3333 18.9375C31.3333 19.3402 31.6598 19.6667 32.0625 19.6667Z" fill="#FFC107"/>
</g>
<defs>
<filter id="filter0_d" x="0" y="0" width="51" height="51" filterUnits="userSpaceOnUse" color-interpolation-filters="sRGB">
<feFlood flood-opacity="0" result="BackgroundImageFix"/>
<feColorMatrix in="SourceAlpha" type="matrix" values="0 0 0 0 0 0 0 0 0 0 0 0 0 0 0 0 0 0 127 0"/>
<feOffset/>
<feGaussianBlur stdDeviation="4"/>
<feColorMatrix type="matrix" values="0 0 0 0 0 0 0 0 0 0 0 0 0 0 0 0 0 0 0.25 0"/>
<feBlend mode="normal" in2="BackgroundImageFix" result="effect1_dropShadow"/>
<feBlend mode="normal" in="SourceGraphic" in2="effect1_dropShadow" result="shape"/>
</filter>
<clipPath id="clip0">
<rect width="35" height="35" fill="white" transform="translate(8 8)"/>
</clipPath>
</defs>
</svg>
