<svg width="50" height="51" viewBox="0 0 50 51" fill="none" xmlns="http://www.w3.org/2000/svg">
<g clip-path="url(#clip0)" filter="url(#filter0_d)">
<path d="M41.9809 15.9041C41.9935 15.9506 42 15.9986 42 16.0469V23.5464C42 23.7424 41.8951 23.9233 41.7247 24.0208L35.4191 27.645V34.828C35.4192 34.9241 35.3939 35.0185 35.3458 35.1018C35.2977 35.1851 35.2286 35.2543 35.1453 35.3024L21.9825 42.8663C21.9524 42.8833 21.9195 42.8941 21.8866 42.9059C21.8743 42.9099 21.8627 42.9175 21.8497 42.9209C21.7577 42.9451 21.6609 42.9451 21.5689 42.9209C21.5538 42.9169 21.5401 42.9086 21.5258 42.9031C21.4956 42.8921 21.4641 42.8826 21.4354 42.8663L8.27532 35.3023C8.19169 35.2544 8.12221 35.1853 8.07387 35.102C8.02553 35.0187 8.00005 34.9242 8 34.828V12.3293C8 12.28 8.00691 12.2321 8.01912 12.1857C8.02324 12.17 8.0328 12.1556 8.03838 12.1399C8.04861 12.1112 8.0583 12.0818 8.07331 12.0552C8.08354 12.0374 8.09855 12.0231 8.1109 12.0066C8.1267 11.9848 8.14105 11.9622 8.15951 11.943C8.17531 11.9273 8.1959 11.9157 8.2137 11.902C8.23362 11.8856 8.25128 11.8678 8.27386 11.8548H8.27452L14.8549 8.07297C14.9382 8.0251 15.0326 7.99991 15.1288 7.99991C15.2249 7.99991 15.3194 8.0251 15.4027 8.07297L21.983 11.8548H21.9844C22.0063 11.8686 22.0249 11.8856 22.0447 11.9014C22.0625 11.915 22.0824 11.9273 22.098 11.9425C22.1173 11.9622 22.131 11.9849 22.1473 12.0066C22.159 12.0231 22.1748 12.0374 22.1844 12.0552C22.2 12.0825 22.2089 12.1112 22.22 12.14C22.2254 12.1556 22.235 12.17 22.2391 12.1864C22.2517 12.2329 22.2582 12.2811 22.2584 12.3293V26.3816L27.7416 23.2298V16.0462C27.7416 15.9985 27.7486 15.9498 27.7609 15.9041C27.7657 15.8877 27.7746 15.8733 27.78 15.8577C27.7911 15.8289 27.8006 15.7994 27.8156 15.7728C27.8259 15.7551 27.8409 15.7408 27.8527 15.7243C27.869 15.7024 27.8827 15.6799 27.9018 15.6607C27.9178 15.645 27.9375 15.6334 27.9553 15.6197C27.9759 15.6033 27.9937 15.5855 28.0156 15.5725H28.0163L34.5973 11.7907C34.6806 11.7427 34.7751 11.7175 34.8712 11.7175C34.9674 11.7175 35.0618 11.7427 35.1451 11.7907L41.7255 15.5725C41.7487 15.5862 41.7665 15.6033 41.7871 15.6189C41.8041 15.6327 41.824 15.645 41.8398 15.66C41.859 15.6799 41.8726 15.7024 41.889 15.7243C41.9015 15.7408 41.9165 15.7551 41.9262 15.7728C41.9418 15.7994 41.9507 15.8289 41.9616 15.8577C41.9679 15.8733 41.9768 15.8877 41.9809 15.9041ZM40.9031 23.23V16.9936L38.6003 18.3168L35.419 20.1453V26.3817L40.9038 23.23H40.9031ZM34.3228 34.5115V28.2708L31.1934 30.0548L22.2577 35.1457V41.445L34.3228 34.5112V34.5115ZM9.0969 13.2759V34.5115L21.1607 41.4444V35.1464L14.8584 31.586L14.8564 31.5846L14.8538 31.5833C14.8325 31.571 14.8146 31.5532 14.7948 31.5382C14.7776 31.5244 14.7578 31.5136 14.7428 31.4985L14.7414 31.4965C14.7236 31.4794 14.7113 31.4581 14.6963 31.4391C14.6825 31.4205 14.6661 31.4049 14.6551 31.3858L14.6544 31.3836C14.6421 31.3632 14.6345 31.3386 14.6256 31.3154C14.6167 31.2948 14.6052 31.2756 14.5996 31.2538V31.2532C14.5928 31.2272 14.5915 31.1998 14.5887 31.1731C14.586 31.1527 14.5805 31.1321 14.5805 31.1116V16.4278L11.3997 14.5985L9.0969 13.2767V13.2759ZM15.1295 9.17892L9.64674 12.3293L15.1282 15.4796L20.6101 12.3285L15.1282 9.17892H15.1295ZM17.9807 28.8396L21.1613 27.012V13.2759L18.8588 14.5993L15.6772 16.4276V30.1635L17.9807 28.8396ZM34.8712 12.8966L29.3892 16.0469L34.8712 19.1973L40.3525 16.0462L34.8713 12.8966H34.8712ZM34.3226 20.1453L31.1414 18.3168L28.8387 16.9936V23.23L32.0193 25.0578L34.3228 26.3817V20.1453H34.3226ZM21.7085 34.1992L29.7494 29.6168L33.7688 27.327L28.2908 24.1787L21.9837 27.8033L16.2353 31.1068L21.7085 34.1992Z" fill="#FF2D20"/>
</g>
<defs>
<filter id="filter0_d" x="0" y="0" width="50" height="51" filterUnits="userSpaceOnUse" color-interpolation-filters="sRGB">
<feFlood flood-opacity="0" result="BackgroundImageFix"/>
<feColorMatrix in="SourceAlpha" type="matrix" values="0 0 0 0 0 0 0 0 0 0 0 0 0 0 0 0 0 0 127 0"/>
<feOffset/>
<feGaussianBlur stdDeviation="4"/>
<feColorMatrix type="matrix" values="0 0 0 0 0 0 0 0 0 0 0 0 0 0 0 0 0 0 0.25 0"/>
<feBlend mode="normal" in2="BackgroundImageFix" result="effect1_dropShadow"/>
<feBlend mode="normal" in="SourceGraphic" in2="effect1_dropShadow" result="shape"/>
</filter>
<clipPath id="clip0">
<rect width="34" height="35" fill="white" transform="translate(8 8)"/>
</clipPath>
</defs>
</svg>
