<svg width="23" height="23" viewBox="0 0 23 23" fill="none" xmlns="http://www.w3.org/2000/svg">
<path d="M18.556 9.4523C18.6371 9.4495 18.7181 9.46308 18.7939 9.49221C18.8697 9.52135 18.9389 9.56545 18.9973 9.62189C19.0557 9.67833 19.1022 9.74595 19.1339 9.82073C19.1657 9.8955 19.182 9.9759 19.182 10.0571C19.182 10.1384 19.1657 10.2188 19.1339 10.2935C19.1022 10.3683 19.0557 10.4359 18.9973 10.4924C18.9389 10.5488 18.8697 10.5929 18.7939 10.6221C18.7181 10.6512 18.6371 10.6648 18.556 10.662H16.8748V11.7401H18.556C18.6376 11.7361 18.7193 11.7487 18.7959 11.7772C18.8725 11.8057 18.9426 11.8495 19.0018 11.9059C19.061 11.9623 19.1081 12.0301 19.1404 12.1053C19.1726 12.1804 19.1892 12.2614 19.1892 12.3431C19.1892 12.4249 19.1726 12.5058 19.1404 12.5809C19.1081 12.6561 19.061 12.7239 19.0018 12.7803C18.9426 12.8367 18.8725 12.8805 18.7959 12.909C18.7193 12.9375 18.6376 12.9501 18.556 12.9461H16.2725C16.1129 12.9456 15.96 12.8818 15.8472 12.7688C15.7345 12.6558 15.6711 12.5027 15.6709 12.3431V7.77187C15.6709 7.43908 15.9404 7.16596 16.2725 7.16596H18.5603C18.7155 7.17398 18.8617 7.2414 18.9685 7.35425C19.0754 7.4671 19.1347 7.61673 19.1342 7.77214C19.1338 7.92755 19.0735 8.07683 18.966 8.18904C18.8585 8.30125 18.7119 8.3678 18.5567 8.3749H16.8755V9.45302L18.556 9.4523ZM14.8659 12.3424C14.8646 12.5025 14.8001 12.6556 14.6865 12.7684C14.5729 12.8811 14.4194 12.9445 14.2593 12.9447C14.1645 12.9456 14.0708 12.9245 13.9856 12.8829C13.9004 12.8414 13.826 12.7806 13.7684 12.7054L11.4288 9.52346V12.3417C11.4288 12.5016 11.3653 12.655 11.2522 12.7681C11.1391 12.8812 10.9857 12.9447 10.8258 12.9447C10.6659 12.9447 10.5125 12.8812 10.3994 12.7681C10.2863 12.655 10.2228 12.5016 10.2228 12.3417V7.77043C10.2228 7.5124 10.3917 7.28096 10.6346 7.1983C10.6946 7.17711 10.7579 7.16665 10.8215 7.1674C11.0084 7.1674 11.1809 7.26874 11.2966 7.41105L13.6548 10.6001V7.77043C13.6548 7.43765 13.9243 7.16452 14.2578 7.16452C14.5913 7.16452 14.8645 7.43765 14.8645 7.77043L14.8659 12.3424ZM9.36316 12.3424C9.3624 12.5027 9.29813 12.6562 9.18442 12.7692C9.07072 12.8823 8.91685 12.9456 8.75653 12.9454C8.5974 12.9441 8.44524 12.88 8.33312 12.7671C8.221 12.6542 8.158 12.5015 8.15781 12.3424V7.77115C8.15781 7.43837 8.42734 7.16524 8.76084 7.16524C9.09363 7.16524 9.36387 7.43837 9.36387 7.77115L9.36316 12.3424ZM7.00062 12.9454H4.71284C4.55269 12.9451 4.39915 12.8815 4.28557 12.7686C4.17199 12.6557 4.10754 12.5025 4.10622 12.3424V7.77115C4.10622 7.43837 4.37934 7.16524 4.71284 7.16524C5.04634 7.16524 5.31587 7.43837 5.31587 7.77115V11.7394H7.00062C7.16056 11.7394 7.31394 11.8029 7.42703 11.916C7.54012 12.0291 7.60366 12.1825 7.60366 12.3424C7.60366 12.5023 7.54012 12.6557 7.42703 12.7688C7.31394 12.8819 7.16056 12.9454 7.00062 12.9454V12.9454ZM23 9.88212C23 4.73515 17.8372 0.546272 11.5 0.546272C5.16278 0.546272 0 4.73515 0 9.88212C0 14.4943 4.09184 18.3576 9.61688 19.0915C9.99134 19.1698 10.5002 19.3387 10.6317 19.6571C10.7475 19.9446 10.7065 20.3902 10.6691 20.6943L10.5117 21.6711C10.4664 21.9593 10.2796 22.806 11.5151 22.2892C12.7542 21.7724 18.1448 18.3813 20.5591 15.6026C22.2101 13.795 23 11.9377 23 9.88212Z" fill="#F2F2F2"/>
</svg>
