<svg width="20" height="21" viewBox="0 0 20 21" fill="none" xmlns="http://www.w3.org/2000/svg">
<path d="M17.0375 17.896H14.0794V13.0222C14.0794 11.86 14.0562 10.3665 12.5325 10.3665C10.99 10.3665 10.755 11.6271 10.755 12.9363V17.8954H7.79313V7.8741H10.6381V9.24102H10.6763C11.0738 8.45158 12.0406 7.62145 13.4831 7.62145C16.4837 7.62145 17.0406 9.69579 17.0406 12.3929V17.8954L17.0375 17.896ZM4.44687 6.50455C4.2208 6.50463 3.99692 6.45789 3.78808 6.36699C3.57923 6.27609 3.38952 6.14282 3.2298 5.97482C3.07009 5.80682 2.94351 5.60739 2.85731 5.38794C2.77112 5.1685 2.72701 4.93335 2.7275 4.69598C2.72787 4.3387 2.82913 3.98955 3.01848 3.69269C3.20782 3.39582 3.47675 3.16457 3.79126 3.02818C4.10577 2.89178 4.45173 2.85636 4.78541 2.9264C5.11909 2.99643 5.4255 3.16878 5.66589 3.42165C5.90629 3.67452 6.06988 3.99655 6.13598 4.34703C6.20207 4.6975 6.16771 5.06069 6.03724 5.39067C5.90676 5.72064 5.68603 6.00259 5.40295 6.20085C5.11987 6.39912 4.78716 6.50481 4.44687 6.50455ZM5.93062 17.896H2.9625V7.87475H5.93062V17.896ZM18.5225 0H1.475C0.660625 0 0 0.676573 0 1.51392V19.4861C0 20.3234 0.660625 21 1.475 21H18.5194C19.3325 21 20 20.3234 20 19.4861V1.51392C20 0.676573 19.3325 0 18.5194 0H18.5225Z" fill="#BDBDBD"/>
</svg>
