<svg width="308" height="308" viewBox="0 0 308 308" fill="none" xmlns="http://www.w3.org/2000/svg">
<circle cx="154" cy="154" r="154" fill="#FFAF29"/>
<path fill-rule="evenodd" clip-rule="evenodd" d="M255.108 218.495C258.959 218.495 261.364 214.325 259.436 210.991L157.885 35.486C155.96 32.1581 151.156 32.1582 149.23 35.486L47.6797 210.991C45.751 214.325 48.1564 218.495 52.0075 218.495L58.9123 218.495H87.4575C90.2189 218.495 92.4575 216.257 92.4575 213.495V196.781C92.4575 195.54 91.4519 194.535 90.2113 194.535V194.535C88.4813 194.535 87.4007 192.661 88.2671 191.163L104.282 163.485C105.176 161.941 106.825 160.989 108.61 160.989H137.904C143.019 160.989 144.834 167.762 140.404 170.32L103.134 191.837C102.67 192.105 102.159 192.276 101.659 192.468C101.079 192.69 100.551 193.017 100.099 193.426C99.8318 193.667 99.5575 193.902 99.2461 194.082L98.4645 194.533C98.4628 194.534 98.4609 194.535 98.4589 194.535H98.4559C98.4514 194.535 98.4477 194.538 98.4477 194.543V194.543V197.139V213.495V213.495C98.4477 216.257 100.686 218.495 103.448 218.495V218.495H128.191H203.668C206.429 218.495 208.668 216.257 208.668 213.495V199.535C208.668 196.773 206.429 194.535 203.668 194.535H165.044C159.928 194.535 158.114 187.762 162.544 185.204L197.838 164.827C200.228 163.447 203.284 164.265 204.666 166.653L218.848 191.163C219.715 192.661 218.634 194.535 216.904 194.535V194.535C215.664 194.535 214.658 195.54 214.658 196.781V213.495C214.658 216.257 216.896 218.495 219.658 218.495H248.203L255.108 218.495ZM157.885 85.8038C155.96 82.476 151.156 82.4759 149.23 85.8038L123.933 129.524C122.004 132.858 124.409 137.029 128.26 137.029H178.855C182.706 137.029 185.112 132.858 183.183 129.524L157.885 85.8038Z" fill="#252734"/>
</svg>
