<svg width="308" height="308" viewBox="0 0 308 308" fill="none" xmlns="http://www.w3.org/2000/svg">
<circle cx="154" cy="154" r="154" fill="#FFAF29"/>
<path fill-rule="evenodd" clip-rule="evenodd" d="M203.826 154.322C202.932 155.871 202.933 157.779 203.828 159.326L216.985 182.066C219.546 186.491 226.313 184.675 226.313 179.562V134.033C226.313 128.917 219.541 127.103 216.983 131.533L203.826 154.322ZM226.313 73.0013C226.313 73.0023 226.312 73.003 226.311 73.0025L226.309 73.0013C226.308 73.0006 226.306 73.001 226.306 73.0023L194.458 128.165C192.534 131.496 187.726 131.498 185.8 128.169L158.214 80.4934C156.288 77.1655 151.484 77.1655 149.559 80.4934L121.839 128.4C119.912 131.73 115.104 131.728 113.181 128.396L81.1994 73.0023C81.1987 73.001 81.1971 73.0006 81.1958 73.0013L81.1938 73.0025C81.1929 73.003 81.1918 73.0023 81.1918 73.0013V73.0013C81.1918 73.0006 81.1912 73 81.1905 73H65C62.2386 73 60 75.2386 60 78V229.49C60 232.251 62.2386 234.49 65 234.49H81.1898C81.1909 234.49 81.1918 234.489 81.1918 234.488V234.488C81.1918 234.487 81.1927 234.486 81.1938 234.486H97.0932C99.8546 234.486 102.093 232.247 102.093 229.486V216.079C102.093 215.028 101.241 214.175 100.189 214.175V214.175C98.7227 214.175 97.8068 212.587 98.5412 211.318L111.897 188.236C112.791 186.691 114.44 185.74 116.225 185.74H137.774C142.89 185.74 144.705 192.512 140.274 195.07L107.185 214.174C107.184 214.175 107.182 214.175 107.181 214.175H107.178C107.174 214.175 107.171 214.178 107.171 214.182V214.182V217.144V229.486V229.486C107.171 232.247 109.41 234.486 112.171 234.486H195.602C198.363 234.486 200.602 232.247 200.602 229.486V219.175C200.602 216.414 198.363 214.175 195.602 214.175H166.465C161.35 214.175 159.535 207.403 163.965 204.845L190.763 189.373C193.153 187.994 196.209 188.811 197.591 191.199L209.231 211.317C209.966 212.587 209.05 214.175 207.583 214.175V214.175C206.532 214.175 205.679 215.028 205.679 216.079V229.486C205.679 232.247 207.918 234.486 210.679 234.486H226.311C226.312 234.486 226.313 234.487 226.313 234.488V234.488C226.313 234.489 226.314 234.49 226.315 234.49H242.505C245.266 234.49 247.505 232.251 247.505 229.49V78C247.505 75.2386 245.266 73 242.505 73H226.315C226.314 73 226.313 73.0006 226.313 73.0013V73.0013ZM90.5219 131.533C87.9642 127.103 81.1918 128.917 81.1918 134.033V180.024C81.1918 185.137 87.9588 186.954 90.5196 182.528L103.811 159.558C104.706 158.01 104.707 156.102 103.813 154.554L90.5219 131.533ZM158.214 123.146C156.288 119.818 151.484 119.818 149.559 123.146L129.435 157.925C127.507 161.258 129.912 165.429 133.763 165.429H174.01C177.861 165.429 180.266 161.258 178.337 157.925L158.214 123.146Z" fill="#303030"/>
</svg>
