<svg width="43" height="43" viewBox="0 0 43 43" fill="none" xmlns="http://www.w3.org/2000/svg">
<mask id="mask0" mask-type="alpha" maskUnits="userSpaceOnUse" x="0" y="0" width="43" height="43">
<circle cx="21.6563" cy="21.0823" r="21.0823" fill="#C4C4C4"/>
</mask>
<g mask="url(#mask0)">
<rect x="-12.1577" y="-10.2673" width="73.5142" height="60.0982" fill="#FFAF29"/>
<path fill-rule="evenodd" clip-rule="evenodd" d="M36.2951 32C36.8372 32 37.1758 31.3931 36.9043 30.9078L22.6092 5.36327C22.3381 4.87891 21.6619 4.87891 21.3907 5.36328L7.09568 30.9078C6.82418 31.3931 7.16278 32 7.70489 32H8.67689H12.6952C13.0839 32 13.399 31.6743 13.399 31.2724V28.8396C13.399 28.6589 13.2574 28.5127 13.0828 28.5127C12.8393 28.5127 12.6871 28.2399 12.8091 28.022L15.0636 23.9934C15.1894 23.7686 15.4215 23.6301 15.6728 23.6301H19.7964C20.5165 23.6301 20.772 24.6159 20.1483 24.9882L14.9019 28.12C14.8366 28.159 14.7647 28.1839 14.6943 28.2118C14.6127 28.2441 14.5384 28.2917 14.4746 28.3512C14.4371 28.3863 14.3984 28.4205 14.3546 28.4467L14.2446 28.5124C14.2444 28.5125 14.2441 28.5127 14.2438 28.5127H14.2434C14.2428 28.5127 14.2422 28.5131 14.2422 28.5138V28.8917V31.2723C14.2422 31.6743 14.5574 32 14.9461 32H18.4292H29.0539C29.4426 32 29.7578 31.6743 29.7578 31.2724V29.2404C29.7578 28.8384 29.4426 28.5127 29.0539 28.5127H23.6169C22.8968 28.5127 22.6413 27.5269 23.2649 27.1547L28.2334 24.1887C28.5698 23.9878 29 24.1069 29.1945 24.4545L31.1909 28.022C31.3128 28.2399 31.1608 28.5127 30.9171 28.5127C30.7426 28.5127 30.601 28.6589 30.601 28.8396V31.2723C30.601 31.6743 30.9161 32 31.3048 32H35.323H36.2951ZM22.6092 12.687C22.3381 12.2026 21.6619 12.2026 21.3907 12.687L17.8297 19.0505C17.5582 19.5356 17.8968 20.1427 18.4389 20.1427H25.5612C26.1033 20.1427 26.4418 19.5356 26.1703 19.0505L22.6092 12.687Z" fill="#333646"/>
</g>
</svg>
