<svg width="50" height="51" viewBox="0 0 50 51" fill="none" xmlns="http://www.w3.org/2000/svg">
<g filter="url(#filter0_d)">
<path d="M42 41C42 42.1046 41.1046 43 40 43H10C8.89543 43 8 42.1046 8 41V10C8 8.89543 8.89543 8 10 8H40C41.1046 8 42 8.89543 42 10V41Z" fill="#F8D9FF"/>
<path d="M39.2954 38.2159C39.2954 39.3205 38.4 40.2159 37.2954 40.2159H12.7045C11.6 40.2159 10.7045 39.3205 10.7045 38.2159V12.7841C10.7045 11.6795 11.6 10.7841 12.7045 10.7841H37.2954C38.4 10.7841 39.2954 11.6795 39.2954 12.7841V38.2159Z" fill="#723B7F"/>
<path d="M18.4218 32.0625V20.4141H23.219C25.4147 20.4141 26.8209 22.4922 26.8209 24.286C26.8209 26.4001 25.2597 28.1578 23.2987 28.1578H20.6212V32.0625H18.4218ZM20.6213 26.1727H23.1713C23.9428 26.1727 24.5897 25.4317 24.5897 24.286C24.5897 23.3016 24.0091 22.3992 23.0756 22.3992H20.6213V26.1727Z" fill="#F8D9FF"/>
<path d="M33.116 25.3688C31.2374 25.3688 30.5023 26.3696 30.2791 26.8617V32.0625H28.1435V23.4656H30.1038V25.3031C30.2525 25.0078 31.1876 23.1587 33.116 23.3672V25.3688Z" fill="#F8D9FF"/>
</g>
<defs>
<filter id="filter0_d" x="0" y="0" width="50" height="51" filterUnits="userSpaceOnUse" color-interpolation-filters="sRGB">
<feFlood flood-opacity="0" result="BackgroundImageFix"/>
<feColorMatrix in="SourceAlpha" type="matrix" values="0 0 0 0 0 0 0 0 0 0 0 0 0 0 0 0 0 0 127 0"/>
<feOffset/>
<feGaussianBlur stdDeviation="4"/>
<feColorMatrix type="matrix" values="0 0 0 0 0 0 0 0 0 0 0 0 0 0 0 0 0 0 0.25 0"/>
<feBlend mode="normal" in2="BackgroundImageFix" result="effect1_dropShadow"/>
<feBlend mode="normal" in="SourceGraphic" in2="effect1_dropShadow" result="shape"/>
</filter>
</defs>
</svg>
