<svg width="50" height="51" viewBox="0 0 50 51" fill="none" xmlns="http://www.w3.org/2000/svg">
<g clip-path="url(#clip0)" filter="url(#filter0_d)">
<path d="M8.70836 8H41.2917C41.6828 8 42 8.32648 42 8.72919V42.2709C42 42.6736 41.6828 43.0001 41.2916 43.0001H8.70836C8.31716 43 8 42.6735 8 42.2708V8.72919C8 8.32648 8.31716 8 8.70836 8Z" fill="#90CAF9"/>
<path d="M11.5416 10.9167H38.4583C38.8495 10.9167 39.1666 11.2432 39.1666 11.6459V39.3542C39.1666 39.7569 38.8495 40.0834 38.4583 40.0834H11.5416C11.1504 40.0834 10.8333 39.7569 10.8333 39.3542V11.6458C10.8334 11.2431 11.1504 10.9167 11.5416 10.9167Z" fill="#283593"/>
<path d="M18.625 32.7917C18.2338 32.7917 17.9166 32.4652 17.9166 32.0625V18.9375C17.9134 18.57 18.1763 18.2575 18.53 18.2083C20.6026 17.9166 23.4246 17.8919 25.1133 19.4128C25.9894 20.2137 26.4681 21.3783 26.4166 22.5833C26.4017 24.0621 25.6422 25.4269 24.4106 26.1883C22.897 27.1578 21.0897 27.5201 19.3333 27.2062V32.0625C19.3333 32.4652 19.0162 32.7917 18.625 32.7917ZM19.3333 25.7129C20.8063 26.0475 22.3479 25.7814 23.6343 24.9706C24.4711 24.4831 24.9917 23.5731 25 22.5833C25.046 21.8022 24.7447 21.0419 24.1811 20.5169C22.7426 19.5738 21.0053 19.2403 19.3333 19.5864V25.7129H19.3333Z" fill="#90CAF9"/>
<path d="M30.7261 32.8251C29.7519 32.8325 28.8055 32.4901 28.05 31.8568C27.7687 31.5749 27.7627 31.1117 28.0365 30.8221C28.3104 30.5326 28.7604 30.5264 29.0417 30.8083C29.7245 31.3288 30.6045 31.4906 31.4203 31.2458C31.586 31.1728 32.0918 30.9541 32.0918 29.8793C32.0918 28.9154 31.5874 28.6426 30.3479 28.2095C29.2811 27.8333 27.8333 27.3316 27.8333 25.5C27.762 24.3642 28.3937 23.3055 29.41 22.8575C30.7196 22.3368 32.2004 22.5874 33.2789 23.5123C33.5633 23.7889 33.576 24.2506 33.3073 24.5433C33.0385 24.8361 32.5901 24.8492 32.3057 24.5725C31.6386 24.0503 30.7609 23.9094 29.971 24.1977C29.4797 24.4225 29.1875 24.9501 29.25 25.5C29.25 26.2189 29.675 26.4348 30.7927 26.8256C31.9416 27.2237 33.5 27.7691 33.5 29.875C33.6088 31.024 32.9907 32.1157 31.9657 32.5845C31.5723 32.7493 31.1508 32.8311 30.7261 32.8251Z" fill="#90CAF9"/>
</g>
<defs>
<filter id="filter0_d" x="0" y="0" width="50" height="51" filterUnits="userSpaceOnUse" color-interpolation-filters="sRGB">
<feFlood flood-opacity="0" result="BackgroundImageFix"/>
<feColorMatrix in="SourceAlpha" type="matrix" values="0 0 0 0 0 0 0 0 0 0 0 0 0 0 0 0 0 0 127 0"/>
<feOffset/>
<feGaussianBlur stdDeviation="4"/>
<feColorMatrix type="matrix" values="0 0 0 0 0 0 0 0 0 0 0 0 0 0 0 0 0 0 0.25 0"/>
<feBlend mode="normal" in2="BackgroundImageFix" result="effect1_dropShadow"/>
<feBlend mode="normal" in="SourceGraphic" in2="effect1_dropShadow" result="shape"/>
</filter>
<clipPath id="clip0">
<rect width="34" height="35" fill="white" transform="translate(8 8)"/>
</clipPath>
</defs>
</svg>
