<svg width="52" height="51" viewBox="0 0 52 51" fill="none" xmlns="http://www.w3.org/2000/svg">
<g filter="url(#filter0_d)">
<path d="M25.8481 8.01013C16.7311 8.01013 17.3004 11.8691 17.3004 11.8691L17.3105 15.867H26.0107V17.0673H13.8549C13.8549 17.0673 8.02094 16.4215 8.02094 25.4001C8.02094 34.3789 13.113 34.0604 13.113 34.0604H16.1519V29.8939C16.1519 29.8939 15.988 24.9239 21.1626 24.9239H29.7916C29.7916 24.9239 34.6397 25.0004 34.6397 20.3507V12.6628C34.6397 12.6628 35.376 8.01013 25.8481 8.01013ZM21.0508 10.6987C21.2564 10.6985 21.46 10.7379 21.65 10.8146C21.84 10.8913 22.0126 11.0038 22.158 11.1457C22.3033 11.2876 22.4186 11.4561 22.4972 11.6415C22.5758 11.8269 22.6162 12.0257 22.616 12.2263C22.6162 12.427 22.5758 12.6257 22.4972 12.8111C22.4186 12.9966 22.3033 13.165 22.158 13.3069C22.0126 13.4488 21.84 13.5613 21.65 13.6381C21.46 13.7148 21.2564 13.7542 21.0508 13.754C20.8452 13.7542 20.6416 13.7148 20.4516 13.6381C20.2617 13.5613 20.0891 13.4488 19.9437 13.3069C19.7983 13.165 19.683 12.9966 19.6044 12.8111C19.5258 12.6257 19.4855 12.427 19.4857 12.2263C19.4855 12.0257 19.5258 11.8269 19.6044 11.6415C19.683 11.4561 19.7983 11.2876 19.9437 11.1457C20.0891 11.0038 20.2617 10.8913 20.4516 10.8146C20.6416 10.7379 20.8452 10.6985 21.0508 10.6987Z" fill="url(#paint0_linear)"/>
<path d="M26.1064 42.88C35.2234 42.88 34.6542 39.0211 34.6542 39.0211L34.6441 35.0232H25.9437V33.823H38.0995C38.0995 33.823 43.9335 34.4687 43.9335 25.4899C43.9335 16.5113 38.8414 16.8297 38.8414 16.8297H35.8025V20.9961C35.8025 20.9961 35.9664 25.9661 30.7918 25.9661H22.1627C22.1627 25.9661 17.3147 25.8896 17.3147 30.5394V38.2275C17.3147 38.2275 16.5785 42.88 26.1063 42.88H26.1064ZM30.9037 40.1917C30.6981 40.1919 30.4945 40.1525 30.3045 40.0758C30.1146 39.9991 29.9419 39.8866 29.7966 39.7447C29.6512 39.6028 29.5359 39.4343 29.4573 39.2489C29.3787 39.0635 29.3384 38.8647 29.3386 38.6641C29.3384 38.4634 29.3787 38.2646 29.4573 38.0792C29.5359 37.8938 29.6511 37.7253 29.7965 37.5834C29.9419 37.4415 30.1145 37.3289 30.3045 37.2522C30.4945 37.1755 30.6981 37.1361 30.9037 37.1363C31.1093 37.1361 31.3129 37.1755 31.5029 37.2522C31.6929 37.3289 31.8655 37.4414 32.0109 37.5833C32.1562 37.7252 32.2715 37.8937 32.3501 38.0791C32.4287 38.2645 32.4691 38.4633 32.4689 38.6639C32.4691 38.8646 32.4287 39.0633 32.3501 39.2487C32.2715 39.4342 32.1562 39.6027 32.0109 39.7445C31.8655 39.8864 31.6929 39.999 31.5029 40.0757C31.3129 40.1524 31.1093 40.1918 30.9037 40.1916V40.1917Z" fill="url(#paint1_linear)"/>
</g>
<defs>
<filter id="filter0_d" x="0" y="0" width="52" height="51" filterUnits="userSpaceOnUse" color-interpolation-filters="sRGB">
<feFlood flood-opacity="0" result="BackgroundImageFix"/>
<feColorMatrix in="SourceAlpha" type="matrix" values="0 0 0 0 0 0 0 0 0 0 0 0 0 0 0 0 0 0 127 0"/>
<feOffset/>
<feGaussianBlur stdDeviation="4"/>
<feColorMatrix type="matrix" values="0 0 0 0 0 0 0 0 0 0 0 0 0 0 0 0 0 0 0.25 0"/>
<feBlend mode="normal" in2="BackgroundImageFix" result="effect1_dropShadow"/>
<feBlend mode="normal" in="SourceGraphic" in2="effect1_dropShadow" result="shape"/>
</filter>
<linearGradient id="paint0_linear" x1="11.4722" y1="11.1465" x2="28.8422" y2="28.7655" gradientUnits="userSpaceOnUse">
<stop stop-color="#387EB8"/>
<stop offset="1" stop-color="#366994"/>
</linearGradient>
<linearGradient id="paint1_linear" x1="22.3957" y1="22.1895" x2="41.07" y2="40.2764" gradientUnits="userSpaceOnUse">
<stop stop-color="#FFE052"/>
<stop offset="1" stop-color="#FFC331"/>
</linearGradient>
</defs>
</svg>
