<svg width="55" height="47" viewBox="0 0 55 47" fill="none" xmlns="http://www.w3.org/2000/svg">
<g filter="url(#filter0_d)">
<path d="M46.9988 21.4902C46.9988 14.1416 38.2663 8.1875 27.5 8.1875C16.7337 8.1875 8.00116 14.1416 8.00116 21.4902C8.00116 28.0391 14.9348 33.4805 24.0701 34.5811V38.8125H30.7218V34.6084C32.3529 34.4238 33.9168 34.1025 35.3801 33.6582L38.0717 38.8125H45.5893L41.0653 31.04C44.7234 28.6201 46.9988 25.2363 46.9988 21.4902ZM15.6665 22.4814C15.6665 17.457 22.3048 13.3896 30.4869 13.3896C38.669 13.3896 44.71 16.1719 44.71 22.4814C44.71 25.9062 42.9313 28.292 39.9913 29.7549C39.8302 29.6455 39.6759 29.5566 39.5618 29.502C38.8771 29.1465 37.6958 28.7842 37.6958 28.7842C37.6958 28.7842 43.5085 28.3467 43.5085 22.4473C43.5085 16.5479 37.4273 16.4385 37.4273 16.4385H24.0701V30.6777C19.0964 29.208 15.6665 26.0908 15.6665 22.4814ZM30.7755 25.0996V21.2988C34.6552 21.2988 36.6688 20.834 36.6688 23.165C36.6688 25.6602 34.1048 25.0996 30.7755 25.0996ZM30.7151 30.0557H32.5006C33.2255 30.0557 33.7692 30.8555 34.1115 31.3682C33.0308 31.498 31.8965 31.5596 30.7151 31.5664V30.0557Z" fill="#33A9DC"/>
</g>
<defs>
<filter id="filter0_d" x="0" y="-2" width="55" height="51" filterUnits="userSpaceOnUse" color-interpolation-filters="sRGB">
<feFlood flood-opacity="0" result="BackgroundImageFix"/>
<feColorMatrix in="SourceAlpha" type="matrix" values="0 0 0 0 0 0 0 0 0 0 0 0 0 0 0 0 0 0 127 0"/>
<feOffset/>
<feGaussianBlur stdDeviation="4"/>
<feColorMatrix type="matrix" values="0 0 0 0 0 0 0 0 0 0 0 0 0 0 0 0 0 0 0.25 0"/>
<feBlend mode="normal" in2="BackgroundImageFix" result="effect1_dropShadow"/>
<feBlend mode="normal" in="SourceGraphic" in2="effect1_dropShadow" result="shape"/>
</filter>
</defs>
</svg>
