<svg width="22" height="23" viewBox="0 0 22 23" fill="none" xmlns="http://www.w3.org/2000/svg">
<path d="M16.038 13.7835C15.7623 13.6376 14.4196 12.9526 14.1687 12.8548C13.9177 12.7614 13.7356 12.7125 13.5527 13.0007C13.3739 13.2818 12.8473 13.9251 12.6864 14.1127C12.5256 14.3003 12.3674 14.3146 12.0959 14.1874C11.8202 14.0415 10.9395 13.7418 9.89381 12.7614C9.07706 12.0017 8.53325 11.0659 8.37169 10.7777C8.21081 10.493 8.35381 10.332 8.48994 10.1897C8.61506 10.0589 8.76563 9.86053 8.90519 9.68803C9.03788 9.51553 9.0805 9.39981 9.17744 9.21294C9.26681 9.01097 9.22075 8.85356 9.15269 8.71125C9.08462 8.56894 8.53669 7.15803 8.30775 6.59597C8.08912 6.03822 7.86019 6.10938 7.69175 6.10938C7.53431 6.09428 7.35144 6.09428 7.16925 6.09428C6.98706 6.09428 6.68937 6.16544 6.43844 6.43856C6.1875 6.72678 5.47869 7.41534 5.47869 8.80828C5.47869 10.2048 6.45975 11.5561 6.59587 11.758C6.73544 11.9449 8.52569 14.8199 11.2722 16.0554C11.9274 16.3437 12.4362 16.5162 12.8336 16.6585C13.4887 16.8755 14.0869 16.8453 14.5592 16.7742C15.0817 16.6843 16.1776 16.0813 16.4072 15.4078C16.6402 14.7301 16.6402 14.1687 16.5722 14.0415C16.5041 13.9107 16.3254 13.8395 16.0497 13.7123L16.038 13.7835ZM11.0571 20.8438H11.0426C9.41669 20.8438 7.80931 20.383 6.40544 19.522L6.07613 19.3164L2.63863 20.2522L3.56263 16.7555L3.34056 16.3961C2.43269 14.887 1.95106 13.1405 1.95113 11.3577C1.95113 6.13956 6.03694 1.88312 11.0639 1.88312C13.4991 1.88312 15.7836 2.875 17.5024 4.67188C18.3503 5.54774 19.0228 6.59136 19.4808 7.74184C19.9388 8.89233 20.173 10.1266 20.1699 11.3728C20.163 16.5873 16.0806 20.8438 11.0605 20.8438H11.0571ZM18.8093 3.30553C16.7179 1.19384 13.9679 0 11.0426 0C5.00913 0 0.09625 5.11391 0.0928125 11.3987C0.0928125 13.4054 0.594 15.3633 1.55375 17.0962L0 23L5.808 21.4166C7.41696 22.3235 9.21541 22.8005 11.0433 22.8052H11.0468C17.0837 22.8052 21.9966 17.6913 22 11.4023C22 8.35906 20.8649 5.49484 18.7956 3.34219L18.8093 3.30553Z" fill="#F2F2F2"/>
</svg>
